<svg width="55" height="56" viewBox="0 0 55 56" fill="none" xmlns="http://www.w3.org/2000/svg">
<path d="M20.2359 49.7871L19.9765 38.4169C20.4194 38.1923 20.6431 38.0143 21.0142 37.6236L41.5095 47.1429C41.4412 47.4267 41.4421 47.6543 41.5095 48.2006L22.8303 52.1669C21.9887 51.0634 21.4049 50.5586 20.2359 49.7871Z" fill="url(#paint0_linear_68_265)"/>
<path d="M42.2878 44.763L43.5849 43.4408L36.3208 22.2869L34.5047 21.7581L21.7924 33.9216L22.0519 35.5081L42.2878 44.763Z" fill="url(#paint1_linear_68_265)"/>
<path d="M46.4388 43.1765L51.6275 25.7245C49.8045 24.3334 49.3572 23.4409 49.0331 21.7582L38.9152 20.4361C38.6551 21.1146 38.416 21.3269 37.8775 21.4938L45.4011 43.1765C45.7579 43.1259 45.963 43.1036 46.4388 43.1765Z" fill="url(#paint2_linear_68_265)"/>
<path d="M38.1369 5.36394C37.7151 5.80223 37.4245 5.98417 36.8397 6.15721V15.9409C38.1119 16.6112 38.6516 17.1119 39.1746 18.3207L49.2926 19.6428C49.4892 19.0086 49.6663 18.7264 50.0709 18.3207L38.1369 5.36394Z" fill="url(#paint3_linear_68_265)"/>
<path d="M33.9858 16.9985L14.0093 8.00806V6.95037L31.3915 2.98401C32.1074 4.8271 32.8352 5.58797 34.7641 6.42152L35.0235 16.2052L33.9858 16.9985Z" fill="url(#paint4_linear_68_265)"/>
<path d="M18.9386 32.0706L11.9339 11.4455L13.231 10.1234L33.2075 18.8494V20.1715L20.4952 32.335L18.9386 32.0706Z" fill="url(#paint5_linear_68_265)"/>
<path d="M16.085 33.9215L5.96701 32.8638C5.96701 32.8638 5.70758 31.5417 4.92927 30.7485C4.15097 29.9552 3.11323 29.6908 3.11323 29.6908L8.82079 11.7099H9.85853L16.8633 32.8638C16.8633 32.8638 16.6038 33.3927 16.3444 33.6571L16.085 33.9215Z" fill="url(#paint6_linear_68_265)"/>
<path d="M21.2735 52.96C21.2735 54.1283 20.3443 55.0754 19.198 55.0754C18.0518 55.0754 17.1226 54.1283 17.1226 52.96C17.1226 51.7918 18.0518 50.8447 19.198 50.8447C20.3443 50.8447 21.2735 51.7918 21.2735 52.96Z" fill="url(#paint7_linear_68_265)"/>
<path d="M4.15095 33.3928C4.15095 34.5611 3.22173 35.5082 2.07548 35.5082C0.929223 35.5082 0 34.5611 0 33.3928C0 32.2245 0.929223 31.2774 2.07548 31.2774C3.22173 31.2774 4.15095 32.2245 4.15095 33.3928Z" fill="url(#paint8_linear_68_265)"/>
<path d="M11.934 7.47933C11.934 8.64763 11.0048 9.59472 9.85856 9.59472C8.7123 9.59472 7.78308 8.64763 7.78308 7.47933C7.78308 6.31104 8.7123 5.36394 9.85856 5.36394C11.0048 5.36394 11.934 6.31104 11.934 7.47933Z" fill="url(#paint9_linear_68_265)"/>
<path d="M37.8774 2.19083C37.8774 3.35913 36.9482 4.30622 35.802 4.30622C34.6557 4.30622 33.7265 3.35913 33.7265 2.19083C33.7265 1.02253 34.6557 0.0754395 35.802 0.0754395C36.9482 0.0754395 37.8774 1.02253 37.8774 2.19083Z" fill="url(#paint10_linear_68_265)"/>
<path d="M55 21.2292C55 22.3975 54.0708 23.3446 52.9245 23.3446C51.7783 23.3446 50.849 22.3975 50.849 21.2292C50.849 20.0609 51.7783 19.1138 52.9245 19.1138C54.0708 19.1138 55 20.0609 55 21.2292Z" fill="url(#paint11_linear_68_265)"/>
<path d="M47.736 47.1429C47.736 48.3112 46.8068 49.2583 45.6605 49.2583C44.5143 49.2583 43.585 48.3112 43.585 47.1429C43.585 45.9746 44.5143 45.0275 45.6605 45.0275C46.8068 45.0275 47.736 45.9746 47.736 47.1429Z" fill="url(#paint12_linear_68_265)"/>
<path d="M17.3821 50.3159L5.18872 36.5659L5.96702 34.9794L15.8255 35.8531C15.8255 35.8531 15.8255 36.5659 16.6038 37.3592C17.3821 38.1524 17.9433 38.2759 17.9433 38.2759L18.1604 49.7871L17.3821 50.3159Z" fill="url(#paint13_linear_68_265)"/>
<defs>
<linearGradient id="paint0_linear_68_265" x1="5.76874" y1="46.9815" x2="48.5763" y2="16.9629" gradientUnits="userSpaceOnUse">
<stop stop-color="#217671"/>
<stop offset="1" stop-color="#00F5E4"/>
</linearGradient>
<linearGradient id="paint1_linear_68_265" x1="5.76874" y1="46.9815" x2="48.5763" y2="16.9629" gradientUnits="userSpaceOnUse">
<stop stop-color="#217671"/>
<stop offset="1" stop-color="#00F5E4"/>
</linearGradient>
<linearGradient id="paint2_linear_68_265" x1="5.76874" y1="46.9815" x2="48.5763" y2="16.9629" gradientUnits="userSpaceOnUse">
<stop stop-color="#217671"/>
<stop offset="1" stop-color="#00F5E4"/>
</linearGradient>
<linearGradient id="paint3_linear_68_265" x1="5.76874" y1="46.9815" x2="48.5763" y2="16.9629" gradientUnits="userSpaceOnUse">
<stop stop-color="#217671"/>
<stop offset="1" stop-color="#00F5E4"/>
</linearGradient>
<linearGradient id="paint4_linear_68_265" x1="5.76874" y1="46.9815" x2="48.5763" y2="16.9629" gradientUnits="userSpaceOnUse">
<stop stop-color="#217671"/>
<stop offset="1" stop-color="#00F5E4"/>
</linearGradient>
<linearGradient id="paint5_linear_68_265" x1="5.76874" y1="46.9815" x2="48.5763" y2="16.9629" gradientUnits="userSpaceOnUse">
<stop stop-color="#217671"/>
<stop offset="1" stop-color="#00F5E4"/>
</linearGradient>
<linearGradient id="paint6_linear_68_265" x1="5.76874" y1="46.9815" x2="48.5763" y2="16.9629" gradientUnits="userSpaceOnUse">
<stop stop-color="#217671"/>
<stop offset="1" stop-color="#00F5E4"/>
</linearGradient>
<linearGradient id="paint7_linear_68_265" x1="5.76874" y1="46.9815" x2="48.5763" y2="16.9629" gradientUnits="userSpaceOnUse">
<stop stop-color="#217671"/>
<stop offset="1" stop-color="#00F5E4"/>
</linearGradient>
<linearGradient id="paint8_linear_68_265" x1="5.76874" y1="46.9815" x2="48.5763" y2="16.9629" gradientUnits="userSpaceOnUse">
<stop stop-color="#217671"/>
<stop offset="1" stop-color="#00F5E4"/>
</linearGradient>
<linearGradient id="paint9_linear_68_265" x1="5.76874" y1="46.9815" x2="48.5763" y2="16.9629" gradientUnits="userSpaceOnUse">
<stop stop-color="#217671"/>
<stop offset="1" stop-color="#00F5E4"/>
</linearGradient>
<linearGradient id="paint10_linear_68_265" x1="5.76874" y1="46.9815" x2="48.5763" y2="16.9629" gradientUnits="userSpaceOnUse">
<stop stop-color="#217671"/>
<stop offset="1" stop-color="#00F5E4"/>
</linearGradient>
<linearGradient id="paint11_linear_68_265" x1="5.76874" y1="46.9815" x2="48.5763" y2="16.9629" gradientUnits="userSpaceOnUse">
<stop stop-color="#217671"/>
<stop offset="1" stop-color="#00F5E4"/>
</linearGradient>
<linearGradient id="paint12_linear_68_265" x1="5.76874" y1="46.9815" x2="48.5763" y2="16.9629" gradientUnits="userSpaceOnUse">
<stop stop-color="#217671"/>
<stop offset="1" stop-color="#00F5E4"/>
</linearGradient>
<linearGradient id="paint13_linear_68_265" x1="5.76874" y1="46.9815" x2="48.5763" y2="16.9629" gradientUnits="userSpaceOnUse">
<stop stop-color="#217671"/>
<stop offset="1" stop-color="#00F5E4"/>
</linearGradient>
</defs>
</svg>
