<svg width="204" height="63" viewBox="0 0 204 63" fill="none" xmlns="http://www.w3.org/2000/svg">
<path d="M23.6427 56.9423L23.3396 43.9183C23.8572 43.661 24.1185 43.4571 24.5521 43.0096L48.4979 53.9135C48.4181 54.2386 48.4191 54.4993 48.4979 55.125L26.6739 59.6683C25.6906 58.4043 25.0086 57.826 23.6427 56.9423Z" fill="white"/>
<path d="M49.4073 51.1875L50.9228 49.6731L42.4357 25.4423L40.3139 24.8365L25.4614 38.7692L25.7645 40.5865L49.4073 51.1875Z" fill="white"/>
<path d="M54.2571 49.3702L60.3193 29.3798C58.1895 27.7863 57.6669 26.764 57.2882 24.8365L45.4668 23.3221C45.163 24.0994 44.8836 24.3425 44.2544 24.5337L53.0446 49.3702C53.4615 49.3123 53.7012 49.2866 54.2571 49.3702Z" fill="white"/>
<path d="M44.5575 6.05769C44.0647 6.55973 43.7252 6.76814 43.0419 6.96635V18.1731C44.5283 18.9409 45.1589 19.5144 45.7699 20.899L57.5913 22.4135C57.821 21.6869 58.0279 21.3637 58.5006 20.899L44.5575 6.05769Z" fill="white"/>
<path d="M39.7077 19.3846L16.3681 9.08654V7.875L36.6766 3.33173C37.513 5.4429 38.3634 6.31444 40.617 7.26923L40.9201 18.476L39.7077 19.3846Z" fill="white"/>
<path d="M22.1272 36.649L13.9432 13.024L15.4587 11.5096L38.7984 21.5048V23.0192L23.9459 36.9519L22.1272 36.649Z" fill="white"/>
<path d="M18.793 38.7692L6.97158 37.5577C6.97158 37.5577 6.66847 36.0433 5.75913 35.1346C4.84979 34.226 3.63735 33.9231 3.63735 33.9231L10.3058 13.3269H11.5183L19.7023 37.5577C19.7023 37.5577 19.3992 38.1635 19.0961 38.4663L18.793 38.7692Z" fill="white"/>
<path d="M24.8552 60.5769C24.8552 61.9152 23.7695 63 22.4303 63C21.0911 63 20.0054 61.9152 20.0054 60.5769C20.0054 59.2387 21.0911 58.1538 22.4303 58.1538C23.7695 58.1538 24.8552 59.2387 24.8552 60.5769Z" fill="white"/>
<path d="M4.84979 38.1635C4.84979 39.5017 3.76413 40.5865 2.4249 40.5865C1.08566 40.5865 0 39.5017 0 38.1635C0 36.8252 1.08566 35.7404 2.4249 35.7404C3.76413 35.7404 4.84979 36.8252 4.84979 38.1635Z" fill="white"/>
<path d="M13.9432 8.48077C13.9432 9.819 12.8575 10.9038 11.5183 10.9038C10.179 10.9038 9.09336 9.819 9.09336 8.48077C9.09336 7.14254 10.179 6.05769 11.5183 6.05769C12.8575 6.05769 13.9432 7.14254 13.9432 8.48077Z" fill="white"/>
<path d="M44.2544 2.42308C44.2544 3.76131 43.1687 4.84615 41.8295 4.84615C40.4902 4.84615 39.4046 3.76131 39.4046 2.42308C39.4046 1.08485 40.4902 0 41.8295 0C43.1687 0 44.2544 1.08485 44.2544 2.42308Z" fill="white"/>
<path d="M64.2598 24.2308C64.2598 25.569 63.1741 26.6538 61.8349 26.6538C60.4956 26.6538 59.41 25.569 59.41 24.2308C59.41 22.8925 60.4956 21.8077 61.8349 21.8077C63.1741 21.8077 64.2598 22.8925 64.2598 24.2308Z" fill="white"/>
<path d="M55.7726 53.9135C55.7726 55.2517 54.687 56.3365 53.3477 56.3365C52.0085 56.3365 50.9228 55.2517 50.9228 53.9135C50.9228 52.5752 52.0085 51.4904 53.3477 51.4904C54.687 51.4904 55.7726 52.5752 55.7726 53.9135Z" fill="white"/>
<path d="M20.3085 57.5481L6.06224 41.7981L6.97158 39.9808L18.4898 40.9816C18.4898 40.9816 18.4898 41.7981 19.3992 42.7067C20.3085 43.6154 20.9641 43.7568 20.9641 43.7568L21.2179 56.9423L20.3085 57.5481Z" fill="white"/>
<path d="M179.586 46V19.4H184.682L200.387 38.552H197.915V19.4H204V46H198.942L183.198 26.848H185.67V46H179.586Z" fill="white"/>
<path d="M167.108 46V19.4H173.268V46H167.108Z" fill="white"/>
<path d="M139.626 46V19.4H151.149C153.532 19.4 155.585 19.7927 157.309 20.578C159.033 21.338 160.364 22.44 161.302 23.884C162.24 25.328 162.709 27.0507 162.709 29.052C162.709 31.028 162.24 32.738 161.302 34.182C160.364 35.626 159.033 36.7407 157.309 37.526C155.585 38.286 153.532 38.666 151.149 38.666H143.049L145.787 35.892V46H139.626ZM145.787 36.576L143.049 33.65H150.806C152.708 33.65 154.128 33.2447 155.066 32.434C156.004 31.6233 156.473 30.496 156.473 29.052C156.473 27.5827 156.004 26.4427 155.066 25.632C154.128 24.8213 152.708 24.416 150.806 24.416H143.049L145.787 21.49V36.576Z" fill="white"/>
<path d="M125.371 46.304C123.038 46.304 120.985 45.848 119.21 44.936C117.461 44.024 116.104 42.7827 115.141 41.212C114.178 39.616 113.696 37.8047 113.696 35.778C113.696 33.726 114.165 31.9147 115.103 30.344C116.066 28.748 117.372 27.5067 119.02 26.62C120.668 25.708 122.531 25.252 124.61 25.252C126.613 25.252 128.413 25.6827 130.01 26.544C131.633 27.38 132.913 28.596 133.851 30.192C134.789 31.7627 135.258 33.65 135.258 35.854C135.258 36.082 135.245 36.348 135.22 36.652C135.195 36.9307 135.169 37.1967 135.144 37.45H118.526V33.992H132.026L129.744 35.018C129.744 33.954 129.528 33.0293 129.097 32.244C128.666 31.4587 128.071 30.8507 127.31 30.42C126.55 29.964 125.662 29.736 124.648 29.736C123.634 29.736 122.734 29.964 121.948 30.42C121.188 30.8507 120.592 31.4713 120.161 32.282C119.73 33.0673 119.514 34.0047 119.514 35.094V36.006C119.514 37.1207 119.755 38.1087 120.237 38.97C120.744 39.806 121.441 40.452 122.328 40.908C123.241 41.3387 124.306 41.554 125.523 41.554C126.613 41.554 127.564 41.3893 128.375 41.06C129.212 40.7307 129.972 40.2367 130.657 39.578L133.813 42.998C132.875 44.062 131.696 44.8853 130.276 45.468C128.857 46.0253 127.221 46.304 125.371 46.304Z" fill="white"/>
<path d="M84.2172 46V19.4H96.3103C99.2005 19.4 101.748 19.9573 103.954 21.072C106.16 22.1613 107.884 23.694 109.126 25.67C110.368 27.646 110.989 29.9893 110.989 32.7C110.989 35.3853 110.368 37.7287 109.126 39.73C107.884 41.706 106.16 43.2513 103.954 44.366C101.748 45.4553 99.2005 46 96.3103 46H84.2172ZM90.3778 40.946H96.0061C97.7807 40.946 99.3146 40.6167 100.608 39.958C101.926 39.274 102.94 38.3113 103.65 37.07C104.385 35.8287 104.753 34.372 104.753 32.7C104.753 31.0027 104.385 29.546 103.65 28.33C102.94 27.0887 101.926 26.1387 100.608 25.48C99.3146 24.796 97.7807 24.454 96.0061 24.454H90.3778V40.946Z" fill="white"/>
</svg>
